<svg xmlns="http://www.w3.org/2000/svg" width="379.448" height="90.073" viewBox="0 0 379.448 90.073">
  <g id="Group_24" data-name="Group 24" transform="translate(-143.672 -384.086)">
    <path id="Path_4" data-name="Path 4" d="M143.672,385.372h35.054c14.485,0,26.073,10.72,26.073,24.335,0,8.113-3.331,13.182-9.415,17.818v.29c8.981,6.373,12.747,12.456,12.747,21.438,0,12.022-9.56,23.031-26.074,23.031H143.672Zm31.288,34.62c4.925,0,8.4-3.331,8.4-8.111,0-4.491-3.476-7.967-8.4-7.967H164.82v16.079Zm2.752,33.316c4.925,0,8.111-2.9,8.111-7.532,0-4.2-3.186-7.677-8.111-7.677H164.82v15.21Z" transform="translate(0 0.294)" fill="#2d92d2"/>
    <path id="Path_5" data-name="Path 5" d="M200.522,385.372h21.293v68.661h37.807v18.25h-59.1Z" transform="translate(13.007 0.294)" fill="#2d92d2"/>
    <path id="Path_6" data-name="Path 6" d="M384.215,385.55H404.06l22.163,46.931,22.306-46.931h19.556v86.911H446.936V433.785l-18.976,37.7h-3.476l-18.975-37.994v38.966H384.215Z" transform="translate(55.035 0.335)" fill="#2d92d2"/>
    <g id="Group_23" data-name="Group 23" transform="translate(272.35 384.086)">
      <path id="Path_7" data-name="Path 7" d="M338.29,416.129a182.585,182.585,0,0,0,24.661-32.043,46.013,46.013,0,0,0-28.491,9.346A144.843,144.843,0,0,1,316,414.242a146.962,146.962,0,0,1-64.1,34.779,43.131,43.131,0,0,0,6.7,10.257C288.307,454.632,315.067,440.158,338.29,416.129Z" transform="translate(-247.587 -384.086)" fill="#2d92d2"/>
      <path id="Path_8" data-name="Path 8" d="M357.459,427.617a192.251,192.251,0,0,0,25.249-38.154,45.314,45.314,0,0,0-12.419-4.523,188.62,188.62,0,0,1-27.967,37.289c-16.251,16.875-42.075,36.987-77.5,44.676a45.248,45.248,0,0,0,17.352,6.444C310.427,468.389,335.691,453.063,357.459,427.617Z" transform="translate(-244.631 -383.891)" fill="#2d92d2"/>
      <path id="Path_9" data-name="Path 9" d="M324.362,394.765a43.781,43.781,0,0,0-16.6-9.076A120.069,120.069,0,0,1,296.6,398.182a134.878,134.878,0,0,1-48.192,29.862c0,.238-.016.472-.016.711a48.08,48.08,0,0,0,1.715,12.805A139.3,139.3,0,0,0,324.362,394.765Z" transform="translate(-248.391 -383.719)" fill="#2d92d2"/>
      <path id="Path_10" data-name="Path 10" d="M299.211,384.382a51.694,51.694,0,0,0-5.517-.3c-23.437,0-40.709,15.243-44.62,35.97A124.481,124.481,0,0,0,299.211,384.382Z" transform="translate(-248.235 -384.086)" fill="#2d92d2"/>
      <path id="Path_11" data-name="Path 11" d="M376.535,431.49a128.528,128.528,0,0,1-36.967,36c1.1.07,2.218.118,3.352.118,26.6,0,45.458-19.845,45.458-45.036a48.3,48.3,0,0,0-1.009-9.844A145.374,145.374,0,0,1,376.535,431.49Z" transform="translate(-227.53 -377.533)" fill="#2d92d2"/>
      <path id="Path_12" data-name="Path 12" d="M375.29,432.228a138.645,138.645,0,0,0,13.657-25.28,43,43,0,0,0-11.873-14.906A198.5,198.5,0,0,1,351.363,430.7a155.645,155.645,0,0,1-34.239,30.271,43.56,43.56,0,0,0,16.479,9.254A118.967,118.967,0,0,0,375.29,432.228Z" transform="translate(-232.665 -382.266)" fill="#2d92d2"/>
    </g>
  </g>
</svg>
