<svg xmlns="http://www.w3.org/2000/svg" width="168" height="168" viewBox="0 0 168 168">
  <g id="Group_10" data-name="Group 10" transform="translate(-645.45 -3819)">
    <path id="Subtraction_3" data-name="Subtraction 3" d="M84,168a84.632,84.632,0,0,1-16.929-1.706,83.545,83.545,0,0,1-30.036-12.64A84.251,84.251,0,0,1,6.6,116.7a83.583,83.583,0,0,1-4.894-15.768,84.822,84.822,0,0,1,0-33.858A83.542,83.542,0,0,1,14.346,37.032,84.243,84.243,0,0,1,51.3,6.6,83.568,83.568,0,0,1,67.071,1.7,84.622,84.622,0,0,1,83.251,0V18.568a65.907,65.907,0,0,0-12.438,1.325,65.075,65.075,0,0,0-23.4,9.846A65.626,65.626,0,0,0,23.709,58.528,65.11,65.11,0,0,0,19.9,70.811a66.08,66.08,0,0,0,0,26.375,65.079,65.079,0,0,0,9.846,23.4,65.621,65.621,0,0,0,28.789,23.707A65.1,65.1,0,0,0,70.813,148.1a66.075,66.075,0,0,0,26.374,0,65.07,65.07,0,0,0,23.4-9.846,65.628,65.628,0,0,0,23.707-28.789A65.11,65.11,0,0,0,148.1,97.186a66.079,66.079,0,0,0,0-26.375q-.031-.152-.063-.3h18.881a84.878,84.878,0,0,1-.628,30.421,83.537,83.537,0,0,1-12.639,30.037A84.242,84.242,0,0,1,116.7,161.4a83.567,83.567,0,0,1-15.768,4.895A84.626,84.626,0,0,1,84,168Z" transform="translate(645.45 3819)" fill="#353f71"/>
    <path id="Intersection_2" data-name="Intersection 2" d="M64.952,70.686a65.278,65.278,0,0,0-3.759-12.008,65.58,65.58,0,0,0-6.048-11.143,66.042,66.042,0,0,0-8.01-9.708,66.077,66.077,0,0,0-9.708-8.01,65.625,65.625,0,0,0-11.143-6.048,65.282,65.282,0,0,0-12.313-3.822A66.08,66.08,0,0,0,.751,18.613q-.375,0-.751,0V0Q.375,0,.751,0A84.842,84.842,0,0,1,17.722,1.711,83.782,83.782,0,0,1,33.529,6.618a84.213,84.213,0,0,1,14.3,7.764A84.682,84.682,0,0,1,70.58,37.128a84.226,84.226,0,0,1,7.764,14.3A83.8,83.8,0,0,1,83.251,67.24q.351,1.713.63,3.446Z" transform="translate(728.791 3819)" fill="#fff"/>
  </g>
</svg>
