<svg xmlns="http://www.w3.org/2000/svg" width="168" height="168.07" viewBox="0 0 168 168.07">
  <g id="Group_18" data-name="Group 18" transform="translate(-723 -3549)">
    <g id="Group_11" data-name="Group 11" transform="translate(723 3549)">
      <path id="Subtraction_5" data-name="Subtraction 5" d="M84.035,168.07A84.65,84.65,0,0,1,67.1,166.363,83.569,83.569,0,0,1,37.05,153.718,84.282,84.282,0,0,1,6.6,116.745a83.627,83.627,0,0,1-4.9-15.774,84.855,84.855,0,0,1,0-33.872A83.57,83.57,0,0,1,14.352,37.05,84.278,84.278,0,0,1,51.325,6.6,83.606,83.606,0,0,1,67.1,1.707,84.672,84.672,0,0,1,83.885,0V18.575A65.94,65.94,0,0,0,70.843,19.9a65.1,65.1,0,0,0-23.407,9.85,65.654,65.654,0,0,0-23.716,28.8A65.133,65.133,0,0,0,19.9,70.842a66.1,66.1,0,0,0,0,26.385,65.1,65.1,0,0,0,9.85,23.407,65.649,65.649,0,0,0,28.8,23.717,65.134,65.134,0,0,0,12.288,3.814,66.1,66.1,0,0,0,26.385,0,65.1,65.1,0,0,0,23.407-9.85,65.654,65.654,0,0,0,23.716-28.8,65.142,65.142,0,0,0,3.814-12.288,65.894,65.894,0,0,0,1.24-9.747H168a84.586,84.586,0,0,1-1.637,13.491,83.569,83.569,0,0,1-12.645,30.049,84.283,84.283,0,0,1-36.973,30.446,83.626,83.626,0,0,1-15.774,4.9A84.645,84.645,0,0,1,84.035,168.07Z" transform="translate(0)" fill="#353f71"/>
      <path id="Intersection_3" data-name="Intersection 3" d="M64.236,85.709q.088-1.685.088-3.376a64.585,64.585,0,0,0-1.3-12.925,63.783,63.783,0,0,0-3.74-12.039,64.111,64.111,0,0,0-5.917-10.894,64.594,64.594,0,0,0-7.836-9.492,64.635,64.635,0,0,0-9.5-7.831,64.217,64.217,0,0,0-10.9-5.913A63.88,63.88,0,0,0,13.081,19.5,64.689,64.689,0,0,0,.147,18.2H0V0H.147a83.057,83.057,0,0,1,16.6,1.673,82.006,82.006,0,0,1,15.465,4.8A82.405,82.405,0,0,1,46.21,14.061,82.982,82.982,0,0,1,58.4,24.115,82.93,82.93,0,0,1,68.464,36.3a82.338,82.338,0,0,1,7.6,13.985,81.89,81.89,0,0,1,4.8,15.455,82.881,82.881,0,0,1,1.674,16.593q0,1.689-.068,3.376Z" transform="translate(84.899 0)" fill="#fff"/>
    </g>
  </g>
</svg>
