<svg id="Group_9" data-name="Group 9" xmlns="http://www.w3.org/2000/svg" width="168" height="168" viewBox="0 0 168 168">
  <path id="Subtraction_2" data-name="Subtraction 2" d="M84,168a84.627,84.627,0,0,1-16.928-1.707,83.528,83.528,0,0,1-30.035-12.639A84.247,84.247,0,0,1,6.6,116.7a83.6,83.6,0,0,1-4.894-15.768,84.823,84.823,0,0,1,0-33.858A83.536,83.536,0,0,1,14.345,37.035,84.244,84.244,0,0,1,51.3,6.6,83.581,83.581,0,0,1,67.067,1.706,84.607,84.607,0,0,1,83.846,0V18.567A65.9,65.9,0,0,0,70.809,19.9a65.076,65.076,0,0,0-23.4,9.846A65.626,65.626,0,0,0,23.708,58.53,65.108,65.108,0,0,0,19.9,70.813a66.08,66.08,0,0,0,0,26.374,65.083,65.083,0,0,0,9.845,23.4,65.619,65.619,0,0,0,28.787,23.707A65.1,65.1,0,0,0,70.809,148.1a66.067,66.067,0,0,0,26.373,0,65.073,65.073,0,0,0,23.4-9.846,65.622,65.622,0,0,0,23.705-28.789A65.105,65.105,0,0,0,148.1,97.187c.063-.306.124-.617.182-.924H167.1c-.228,1.563-.5,3.133-.817,4.666a83.537,83.537,0,0,1-12.639,30.036A84.243,84.243,0,0,1,116.69,161.4a83.585,83.585,0,0,1-15.767,4.894A84.622,84.622,0,0,1,84,168Z" transform="translate(0 0)" fill="#353f71"/>
  <path id="Intersection_1" data-name="Intersection 1" d="M65.116,97.28a66.708,66.708,0,0,0,1.159-12.392,66.628,66.628,0,0,0-1.343-13.326,65.794,65.794,0,0,0-3.853-12.412,66.093,66.093,0,0,0-6.1-11.232,66.573,66.573,0,0,0-8.074-9.786,66.6,66.6,0,0,0-9.786-8.074,66.114,66.114,0,0,0-11.232-6.1,65.788,65.788,0,0,0-12.412-3.853A66.61,66.61,0,0,0,.151,18.763H0V0H.151A85.5,85.5,0,0,1,17.259,1.725,84.473,84.473,0,0,1,33.193,6.671,84.909,84.909,0,0,1,47.613,14.5,85.5,85.5,0,0,1,60.176,24.863,85.494,85.494,0,0,1,70.541,37.426a84.89,84.89,0,0,1,7.827,14.419A84.473,84.473,0,0,1,83.314,67.78a85.509,85.509,0,0,1,1.725,17.108,85.834,85.834,0,0,1-.9,12.392Z" transform="translate(82.961 0)" fill="#fff"/>
</svg>
