<svg xmlns="http://www.w3.org/2000/svg" width="245.68" height="122.844" viewBox="0 0 245.68 122.844">
  <g id="noun-modem-1099446" transform="translate(-176.406 -190.394)">
    <path id="Path_13" data-name="Path 13" d="M217.1,268.261l-36.942-68.224a1.611,1.611,0,0,0-2.151-.666l-.73.373a1.617,1.617,0,0,0-.716,2.137l32.1,66.38Z" transform="translate(0 -2.573)" fill="#292d41"/>
    <path id="Path_14" data-name="Path 14" d="M505.9,199.732l-.73-.373a1.61,1.61,0,0,0-2.151.666l-36.945,68.229h8.442l32.1-66.385a1.615,1.615,0,0,0-.719-2.137Z" transform="translate(-84.697 -2.569)" fill="#292d41"/>
    <path id="Path_15" data-name="Path 15" d="M345.232,191.969a1.607,1.607,0,0,0-1.609-1.576h-.813a1.6,1.6,0,0,0-1.609,1.573l-1.7,73.719h7.43Z" transform="translate(-47.687)" fill="#292d41"/>
    <path id="Path_16" data-name="Path 16" d="M400.37,302.4H217.763A7.762,7.762,0,0,0,210,310.159v12.054H408.133V310.159a7.762,7.762,0,0,0-7.762-7.759ZM213.963,318.252v-7.925s0-3.964,3.964-3.964h39.626s-39.629,3.964-43.59,11.889Zm69.346,0a1.982,1.982,0,1,1,1.982-1.982A1.982,1.982,0,0,1,283.309,318.252Zm11.886,0a1.982,1.982,0,1,1,1.982-1.982A1.982,1.982,0,0,1,295.195,318.252Zm11.889,0a1.982,1.982,0,1,1,1.982-1.982A1.982,1.982,0,0,1,307.083,318.252Zm11.889,0a1.982,1.982,0,1,1,1.982-1.982A1.982,1.982,0,0,1,318.972,318.252Zm11.889,0a1.982,1.982,0,1,1,1.982-1.982A1.982,1.982,0,0,1,330.861,318.252Z" transform="translate(-9.823 -32.749)" fill="#292d41"/>
    <path id="Path_17" data-name="Path 17" d="M210,344.087a7.761,7.761,0,0,0,7.762,7.759h4.127V354.2a1.61,1.61,0,0,0,1.609,1.609h8.671a1.607,1.607,0,0,1,1.609-1.609v-2.355h150.58V354.2a1.606,1.606,0,0,0,1.606,1.609h8.671a1.607,1.607,0,0,1,1.609-1.609v-2.355h4.124a7.759,7.759,0,0,1,7.762-7.759l0-8.091H210Z" transform="translate(-9.822 -42.572)" fill="#292d41"/>
  </g>
</svg>
