<svg xmlns="http://www.w3.org/2000/svg" width="135.682" height="130.844" viewBox="0 0 135.682 130.844">
  <g id="noun-modem-1281988" transform="translate(-141.256 -78.537)">
    <path id="Path_18" data-name="Path 18" d="M474.511,166.684h5.795l-.576-64.891a2.4,2.4,0,0,0-.729-1.7,2.487,2.487,0,0,0-1.745-.7,2.443,2.443,0,0,0-2.457,2.412l-.576,64.891Z" transform="translate(-224.739 -14.078)" fill="#292d41"/>
    <path id="Path_19" data-name="Path 19" d="M477.8,334.211l-.439-17.565a2.411,2.411,0,0,0-2.2-2.579h-5.522a2.411,2.411,0,0,0-2.2,2.579L467,334.257Z" transform="translate(-219.862 -158.973)" fill="#292d41"/>
    <path id="Path_20" data-name="Path 20" d="M522.67,97l1.745,1.183a17.234,17.234,0,0,0,0-19.644l-1.745,1.2a15.171,15.171,0,0,1,0,17.262Z" transform="translate(-257.438)" fill="#292d41"/>
    <path id="Path_21" data-name="Path 21" d="M434.637,97a15.166,15.166,0,0,1,0-17.277l-1.745-1.183a17.234,17.234,0,0,0,0,19.644Z" transform="translate(-194.768 -0.001)" fill="#292d41"/>
    <path id="Path_22" data-name="Path 22" d="M270.888,383.55H147.323a6.065,6.065,0,0,0-6.067,6.066v19.569a6.065,6.065,0,0,0,6.067,6.067H270.871a6.065,6.065,0,0,0,6.067-6.067V389.662a6.065,6.065,0,0,0-6.051-6.112ZM156.866,402.89a3.674,3.674,0,1,1,2.614-1.065,3.671,3.671,0,0,1-2.614,1.065Zm19.264,0a3.672,3.672,0,1,1,2.6-1.075,3.672,3.672,0,0,1-2.6,1.075Zm19.264,0a3.64,3.64,0,1,1,.061,0Z" transform="translate(0 -205.871)" fill="#292d41"/>
  </g>
</svg>
