<svg xmlns="http://www.w3.org/2000/svg" width="146.78" height="148.282" viewBox="0 0 146.78 148.282">
  <g id="noun-modem-1282062" transform="translate(-140 -67.668)">
    <path id="Path_23" data-name="Path 23" d="M476.45,135.742,474.721,79.72a2.593,2.593,0,0,0-.831-1.842A2.922,2.922,0,0,0,471.9,77.1a2.755,2.755,0,0,0-2.837,2.657l-2.4,55.991Z" transform="translate(-212.568 -6.134)" fill="#292d41"/>
    <path id="Path_24" data-name="Path 24" d="M520.33,86.056l1.776,1.173h0a16.893,16.893,0,0,0,0-19.56l-1.776,1.173h0a14.847,14.847,0,0,1,0,17.214Z" transform="translate(-247.485 -0.001)" fill="#292d41"/>
    <path id="Path_25" data-name="Path 25" d="M431.877,86.056a14.853,14.853,0,0,1,0-17.214L430.1,67.669a16.887,16.887,0,0,0,0,19.56Z" transform="translate(-186.742)" fill="#292d41"/>
    <path id="Path_26" data-name="Path 26" d="M280.229,249.67H146.745a6.634,6.634,0,0,0-6.519,6.666v66.5h146.7v-66.5a6.65,6.65,0,0,0-6.7-6.667ZM157.049,270.86h0a4.029,4.029,0,1,0,0-.064Zm20.815,0h0a4.029,4.029,0,1,0,0-.064Zm20.815,0h0a4.029,4.029,0,1,0,0-.064Zm71.248,0h0a1.673,1.673,0,1,0,0-.064Z" transform="translate(-0.147 -118.43)" fill="#292d41"/>
    <path id="Path_27" data-name="Path 27" d="M140,467.178a6.634,6.634,0,0,0,6.6,6.617H280.085a6.634,6.634,0,0,0,6.6-6.617v-3.26H140Z" transform="translate(0 -257.844)" fill="#292d41"/>
  </g>
</svg>
